<?xml version="1.0" encoding="UTF-8"?>
<svg id="NEW" xmlns="http://www.w3.org/2000/svg" viewBox="0 0 1346 210">
  <defs>
    <style>
      .cls-1 {
        fill: #fff;
      }

      .cls-2 {
        fill: #e32729;
      }

      .cls-3 {
        fill: #c72227;
      }
    </style>
  </defs>
  <path class="cls-1" d="M385.1,56.55c-2.04-3.53-4.73-6.64-8.01-9.24-4.2-3.3-8.51-4.97-12.8-4.97s-8.26,1.67-12.74,5.09l-.1.08c-3.35,2.67-6.02,5.71-7.91,8.94l-67.05,111.51h39.89l12.84-21.09h0l29.73-48.85h0l4.82-7.92,4.79,7.92h0l.16.27,3.65,6.04h0l19.31,32.04h0l19.01,31.56,39.82.26-65.4-111.66Z"/>
  <path class="cls-1" d="M497.05,123.69h53.57v12.11h-45.83c-9.21,0-16.53-2.73-22.36-8.35-5.77-5.53-8.58-12.65-8.58-21.77s2.83-16.57,8.65-22.34c5.83-5.78,13.12-8.59,22.29-8.59h70.1v-32.21h-70.1c-18.23,0-33.45,5.7-45.25,16.94-11.87,11.31-17.89,26.31-17.89,44.55s6.03,33.65,17.92,45.72c11.92,12.11,27.13,18.25,45.22,18.25h78.03v-74.88h-85.78v30.56Z"/>
  <path class="cls-1" d="M729.74,109.23c5.46-7.01,8.85-15.73,8.85-25.3,0-22.39-17.8-40.47-40-41.24v-.14h-101.18v22l16.1,10.08h-16.1s0,93.39,0,93.39h32.2v-42.68h67.56v-.13h0v.13c5.08,0,9.2,4.12,9.2,9.19h.02v33.48h32.21v-33.48h0s0-.01,0-.02c0-9.57-3.39-18.28-8.85-25.29ZM697.17,93.13h-67.56v-18.38h67.56v-.13h0v.13c5.08,0,9.2,4.11,9.2,9.19s-4.11,9.2-9.19,9.2h0Z"/>
  <path class="cls-1" d="M876.83,121.38v-32.21h-89.66v-13.71h108.16v-33.02h-118.89c-12.26,0-22.29,10.04-22.29,22.29v81.09c0,12.25,10.03,22.29,22.29,22.29h118.89v-33.03h-108.16v-13.71h89.66Z"/>
  <path class="cls-1" d="M1011.12,90.12h-59.21c-5.15,0-9.33-3.88-9.33-8.67s4.18-8.67,9.33-8.67h59.21v-.02c5.15,0,9.33,3.88,9.33,8.67h32.69v-.02c0-21.56-18.82-39-42.02-39v.02h-59.21c-23.2,0-42.01,17.45-42.01,39s18.81,39.03,42.01,39.03h59.21c5.15,0,9.33,3.88,9.33,8.67s-4.18,8.66-9.33,8.66h-59.21c-5.15,0-9.33-3.88-9.33-8.66h-32.68v.02c0,21.56,18.81,39,42.01,39h59.21c23.2,0,42.02-17.48,42.02-39.03s-18.82-39-42.02-39Z"/>
  <rect class="cls-1" x="1089.87" y="135.87" width="32.27" height="32.27"/>
  <polygon class="cls-1" points="1158.86 42.54 1158.86 63.13 1174.54 73.22 1158.86 73.22 1158.86 168.02 1190.22 168.02 1190.22 42.54 1158.86 42.54"/>
  <path class="cls-1" d="M1328.04,60.78c-11.92-12.1-27.13-18.24-45.22-18.24h-78.04v125.47h78.04c18.23,0,33.45-5.7,45.25-16.94,11.87-11.32,17.89-26.31,17.89-44.56s-6.02-33.66-17.93-45.74ZM1305.12,127.21c-5.84,5.79-13.13,8.6-22.29,8.6h-46.48v-61.06h46.48c9.21,0,16.52,2.72,22.36,8.34,5.77,5.54,8.58,12.67,8.58,21.77s-2.83,16.57-8.65,22.34Z"/>
  <g>
    <path class="cls-2" d="M98.21,45.05c24.5,8.35,42.06,27.65,49.08,50.5.98-6.58,1.79-18.12-1.54-30.63-2-7.5-5.49-15.35-11.33-22.69-5.57-7.01-12.29-12.53-19.73-16.61-30-16.46-72.67-9.27-94.39,17.61-3.2,3.96-5.8,7.95-7.98,11.77-4.38,7.72-7.04,14.77-8.65,20.62-.47,1.45-.77,2.83-1.07,4.14-.3,1.31-.58,2.53-.79,3.67-.34,2.17-.7,3.99-.86,5.55,0,.05-.02.09-.02.09-.05.17-.08.3-.11.41,15.2-38.02,57.98-57.84,97.38-44.42Z"/>
    <path class="cls-2" d="M180.14,45.14c-7.54-19.84-25.36-36.1-51.11-42.56-.98-.25-1.95-.47-2.91-.66-.42-.09-.84-.18-1.24-.26-.44-.09-.89-.18-1.32-.26-18.09-3.46-33.02-.94-43.18,2.28-.09.03-.2.06-.3.09-.35.09-.69.2-1.01.3-.04.02-.09.02-.09.02-.48.07-.7.11-.7.11,0,0,.07.03.21.08-2.74.94-4.16,1.44-4.16,1.44,0,0,.1.01.28.03-5.81,2.35-8.99,4.5-8.99,4.5,4.95-.34,9.62-.44,14.06-.33,26.5.67,54.19,11.27,68,34.94,16.11,27.61,12.44,65.96-9.4,91.59,10.12-5.67,19.26-13.08,26.85-21.78,19.24-22.06,23.23-47.92,15.02-69.54Z"/>
    <path class="cls-2" d="M200.32,92.53c0,57.77-47.18,104.6-105.37,104.6-21.9,0-42.23-6.62-59.07-17.96-7.55-4.74-14.03-10.23-19.45-15.98-2.09-3.1-3.93-6.22-5.5-9.28-2.34-4.5-4.19-8.87-5.6-13.07-.57-1.66-1.07-3.31-1.51-4.88,0-.02-.02-.04-.02-.05-2.17-7.04-3.34-13.6-3.93-19.24-1.24-11.64-.04-19.4-.04-19.4.18,2.24.55,4.56,1.04,6.9,1.44,6.75,3.99,13.69,6.43,19.36.18.42.35.83.53,1.23h0c2.67,6.1,5.08,10.5,5.54,11.34.02.02.04.07.08.13h0s.01.03.01.03c.13.24.29.5.44.76,1.59,2.73,3.46,5.54,5.54,8.31-.34-1.34-.68-2.69-1-4.04-1.77-9.13-1.3-18.26.77-26.35,2.05-8.11,5.62-15.19,9.9-21.14,4.3-5.98,9.28-10.84,14.53-14.69,8.59-6.29,17.8-9.88,26.32-11.25h.05c1.88-.31,3.75-.51,5.54-.59,1.26-.11,2.5-.12,3.72-.09,4.32-.05,9.35.34,13.44,1.81-10.35,5.43-24.61,12.28-24.61,12.28,7.25-.67,11.55-.9,17.83-4.52.83-.47,1.65-.94,2.45-1.4,9.61-5.35,17.52-8.38,29.08-5.54,4.27,1.04,7.26,2.47,9.25,3.39,1.95,1.06,2.9,1.65,2.9,1.65,0,0-1.13.06-3.26.23-2.13.24-5.19.61-8.83,1.67-2.08.6-4.32,1.44-6.65,2.52-.95.45-1.94.95-2.95,1.52-.79.42-1.61.89-2.43,1.42-4.18,2.72-8.35,6.32-11.93,10.9-.23.3-.48.62-.72.93-3.26,4.35-5.98,9.49-7.55,14.93-1.21,4.12-1.74,8.43-1.48,12.49.1,1.65.34,3.28.71,4.85.35,1.61.86,3.14,1.49,4.58.43.97.91,1.91,1.44,2.83.43.76.91,1.55,1.44,2.26,1.04,1.49,2.28,2.94,3.67,4.36,24.72,24.96,65.29-.97,84.28-24.17,0,0,30.89-38.67,5.34-82.26-.51-.87-1.03-1.7-1.55-2.54.15.13,1.5,1.25,3.52,3.31,2.33,3.58,4.68,7.73,6.79,12.46,2.31,5.16,4.17,10.55,5.61,16.06,2.51,9.59,3.75,19.54,3.75,29.33Z"/>
    <path class="cls-3" d="M210.3,105.02c0,57.76-47.18,104.59-105.36,104.59-21.9,0-42.24-6.62-59.07-17.97-11.05-6.92-19.79-15.46-26.31-24.09-1.11-1.45-2.15-2.91-3.12-4.37,5.43,5.75,11.91,11.23,19.45,15.98,16.84,11.34,37.18,17.96,59.07,17.96,58.19,0,105.37-46.83,105.37-104.6,0-9.79-1.23-19.74-3.75-29.33-1.45-5.51-3.3-10.9-5.61-16.06-2.11-4.73-4.46-8.89-6.79-12.46,4.2,4.3,11.33,12.72,16.77,24.94,2.29,5.18,4.17,10.57,5.61,16.08,2.51,9.58,3.74,19.54,3.74,29.33Z"/>
    <rect class="cls-2" x="205.54" y="45.22" width="15.59" height="15.48"/>
    <rect class="cls-2" x="221.13" y="29.74" width="15.59" height="15.48"/>
    <rect class="cls-2" x="205.54" y="14.27" width="15.59" height="15.48"/>
  </g>
</svg>