<?xml version="1.0" encoding="UTF-8"?>
<svg id="Layer_1" data-name="Layer 1" xmlns="http://www.w3.org/2000/svg" viewBox="0 0 176.32 24.37">
  <defs>
    <style>
      .cls-1, .cls-2 {
        fill: #f89825;
      }

      .cls-3 {
        fill: #1f2122;
      }

      .cls-2 {
        fill-rule: evenodd;
      }
    </style>
  </defs>
  <path class="cls-3" d="M7.88,12.55v-.55c0-.64-.03-1.15-.09-1.54-.2-1.28-1.06-1.92-2.6-1.92-1.05,0-1.73.26-2.03.79-.29.51-.44,1.53-.44,3.05,0,1.63.18,2.66.54,3.08.33.39.91.61,1.73.68.4-.03.99-.13,1.77-.31.26-.09.48-.24.65-.46.31-.38.46-1.32.46-2.81M10.69,18.05h-2.77l.13-1.7h-.08c-.55,1.22-1.72,1.83-3.49,1.83-1.5,0-2.58-.31-3.23-.94-.39-.38-.67-.81-.84-1.3-.27-.78-.4-1.92-.4-3.42s.04-2.51.13-3c.15-.84.45-1.49.89-1.94.38-.39.8-.66,1.27-.82.54-.19,1.22-.28,2.05-.29,1.86-.01,3.03.54,3.49,1.66h.09V1.69h2.77v16.36Z"/>
  <path class="cls-2" d="M25.88,14.47c-.27.49-.69.85-1.28,1.07-.58.22-1.39.33-2.43.33-1.84,0-3.07-.26-3.7-.79-.62-.52-.94-1.5-.94-2.93,0-.82.07-1.47.22-1.94.14-.47.38-.85.72-1.13.28-.24.7-.41,1.25-.51.54-.1,1.33-.15,2.36-.15s1.88.09,2.44.26c.56.18.99.46,1.27.88v-2.03c0-.96-.19-1.58-.56-1.87-.37-.28-1.3-.42-2.8-.42-1.09,0-1.81.11-2.16.34-.36.23-.54.66-.56,1.28h-1.73v-.27c0-1.01.32-1.72.98-2.15.65-.43,1.78-.64,3.37-.64,1.24,0,2.19.05,2.83.16.65.1,1.13.27,1.44.5.34.27.58.6.72.99.14.39.21,1.07.21,2.03v8.22h-1.58l-.07-1.24ZM25.8,12.72v-1.24c0-.56-.29-.97-.85-1.23-.57-.26-1.47-.39-2.72-.39-1.14,0-1.9.15-2.28.43-.38.29-.58.83-.58,1.65,0,.92.2,1.54.61,1.84.4.31,1.22.46,2.44.46,1.09,0,1.93-.13,2.51-.4.58-.26.87-.64.87-1.13ZM13.46,19.3h18.16V0H13.46v19.3Z"/>
  <path class="cls-3" d="M46.32,19.5h-1.56v-1.54c-.42.61-.9,1.06-1.44,1.34-.53.28-1.17.43-1.89.43-1.28,0-2.19-.45-2.73-1.35-.54-.9-.81-2.46-.81-4.66v-2.02c0-2.02.28-3.46.85-4.33.57-.87,1.49-1.3,2.77-1.3.68,0,1.28.14,1.8.42.52.28.96.69,1.33,1.25V.29h1.69v19.21ZM44.63,11.85c0-1.6-.2-2.7-.6-3.29-.4-.59-1.1-.88-2.08-.88-.82,0-1.4.29-1.74.88-.33.59-.5,1.66-.5,3.21v2.26c0,1.55.17,2.62.5,3.2.33.58.91.88,1.74.88.98,0,1.68-.29,2.08-.88.4-.59.6-1.68.6-3.27v-2.11Z"/>
  <path class="cls-3" d="M50.03,2.83V.62h1.69v2.21h-1.69ZM50.03,19.5V6.3h1.69v13.2h-1.69Z"/>
  <path class="cls-3" d="M63.49,6.3v13.67c0,1.61-.32,2.75-.95,3.41-.64.66-1.72.99-3.27.99-1.31,0-2.3-.23-2.95-.68-.65-.45-.98-1.14-.98-2.05v-.67h1.74s0,.08-.01.15c0,.07-.01.12-.01.15,0,.55.17.95.51,1.2.34.25.9.37,1.67.37.99,0,1.67-.2,2.02-.58.36-.39.53-1.31.53-2.75v-2.19c-.36.56-.81.98-1.33,1.25-.52.28-1.12.41-1.8.41-1.28,0-2.2-.43-2.77-1.3-.57-.87-.85-2.31-.85-4.32v-1.28c0-2.2.27-3.76.81-4.66.54-.9,1.45-1.35,2.73-1.35.72,0,1.35.15,1.89.44.54.29,1.02.75,1.44,1.37v-1.56h1.56ZM61.8,13.2v-1.35c0-1.6-.2-2.7-.6-3.29-.4-.59-1.1-.88-2.08-.88-.82,0-1.4.29-1.74.88-.33.59-.5,1.66-.5,3.21v1.51c0,1.54.17,2.61.5,3.2.33.59.91.88,1.74.88.98,0,1.68-.29,2.08-.88.4-.59.6-1.68.6-3.29Z"/>
  <path class="cls-3" d="M67.2,2.83V.62h1.69v2.21h-1.69ZM67.2,19.5V6.3h1.69v13.2h-1.69Z"/>
  <path class="cls-3" d="M72.9,7.87h-1.37v-1.56h1.37v-3.2h1.7v3.2h4.28v1.56h-4.28v7.54c0,1.21.11,1.98.33,2.31.22.33.64.49,1.25.49.56,0,.96-.15,1.19-.46.23-.31.35-.82.35-1.55v-1.22h1.54v.93c0,1.37-.25,2.35-.76,2.94-.51.59-1.35.88-2.52.88s-1.93-.27-2.39-.81c-.46-.54-.69-1.54-.69-2.99V7.87Z"/>
  <path class="cls-3" d="M88.24,19.5v-1.2c-.3.52-.69.89-1.18,1.11-.49.22-1.16.34-2,.34-1.1,0-1.92-.28-2.47-.83-.54-.55-.81-1.39-.81-2.53v-1.77c0-1.11.3-1.95.89-2.52.59-.57,1.46-.86,2.61-.86.71,0,1.31.09,1.79.28.48.19.87.47,1.18.86v-2.06c0-1.13-.15-1.86-.45-2.21-.3-.35-.9-.52-1.81-.52-.75,0-1.28.13-1.59.39-.31.26-.47.68-.47,1.28v.62h-1.74v-.6c0-1.14.31-1.97.93-2.49.62-.53,1.6-.79,2.95-.79,1.46,0,2.46.28,3.02.83.56.56.83,1.57.83,3.04v9.61h-1.67ZM85.71,18.2c.94,0,1.61-.21,2-.63.39-.42.58-1.15.58-2.19s-.16-1.67-.49-2.02c-.33-.35-.95-.52-1.88-.52s-1.57.19-1.89.57c-.32.38-.48,1.13-.48,2.27,0,.92.17,1.57.5,1.95.33.39.89.58,1.66.58Z"/>
  <path class="cls-3" d="M93.63,19.5V.29h1.69v19.21h-1.69Z"/>
  <path class="cls-3" d="M117.02,19.5V.29h1.69v19.21h-1.69Z"/>
  <path class="cls-3" d="M122.39,19.5V.29h1.69v19.21h-1.69Z"/>
  <path class="cls-3" d="M127.68,2.83V.62h1.69v2.21h-1.69ZM127.68,19.5V6.3h1.69v13.2h-1.69Z"/>
  <path class="cls-3" d="M139.14,19.5v-1.2c-.3.52-.69.89-1.18,1.11-.49.22-1.16.34-2,.34-1.1,0-1.92-.28-2.47-.83-.54-.55-.81-1.39-.81-2.53v-1.77c0-1.11.3-1.95.89-2.52.59-.57,1.46-.86,2.61-.86.71,0,1.31.09,1.79.28.48.19.87.47,1.18.86v-2.06c0-1.13-.15-1.86-.45-2.21-.3-.35-.9-.52-1.81-.52-.75,0-1.28.13-1.59.39-.31.26-.47.68-.47,1.28v.62h-1.74v-.6c0-1.14.31-1.97.93-2.49.62-.53,1.6-.79,2.95-.79,1.46,0,2.46.28,3.02.83.56.56.83,1.57.83,3.04v9.61h-1.67ZM136.61,18.2c.94,0,1.61-.21,2-.63.39-.42.58-1.15.58-2.19s-.16-1.67-.49-2.02c-.33-.35-.95-.52-1.88-.52s-1.57.19-1.89.57c-.32.38-.48,1.13-.48,2.27,0,.92.17,1.57.5,1.95.33.39.89.58,1.66.58Z"/>
  <path class="cls-3" d="M151.15,19.5v-8.38c0-1.32-.16-2.24-.48-2.75-.32-.51-.87-.77-1.65-.77-.98,0-1.68.33-2.1,1-.42.67-.63,1.84-.63,3.5v7.4h-1.69V6.3h1.56v1.53c.33-.59.76-1.04,1.3-1.33.53-.29,1.18-.44,1.93-.44,1.23,0,2.11.35,2.65,1.06.54.71.81,1.88.81,3.53v8.85h-1.69Z"/>
  <path class="cls-3" d="M164.79,14.63v.55c0,1.6-.33,2.76-.98,3.48-.65.72-1.71,1.07-3.17,1.07-1.61,0-2.74-.39-3.38-1.16-.64-.78-.97-2.15-.97-4.11v-3.13c0-1.96.32-3.32.97-4.1.64-.78,1.78-1.16,3.41-1.16,1.36,0,2.34.3,2.94.91.59.61.89,1.6.89,2.99v.66h-1.69v-.24c0-.96-.17-1.64-.52-2.03-.35-.4-.95-.6-1.79-.6-.94,0-1.57.22-1.9.65-.33.43-.49,1.41-.49,2.92v3.15c0,1.51.17,2.48.51,2.92.34.44.99.66,1.96.66s1.6-.2,1.95-.59c.35-.39.53-1.17.53-2.32v-.52h1.74Z"/>
  <path class="cls-3" d="M169.43,13.22v1.26c0,1.53.17,2.51.51,2.93.34.42,1.02.63,2.03.63,1.07,0,1.79-.16,2.18-.47.39-.31.58-.89.58-1.74v-.42h1.56v.44c0,1.37-.34,2.36-1.01,2.97-.67.61-1.78.91-3.31.91s-2.73-.39-3.38-1.17c-.65-.78-.97-2.15-.97-4.11v-3.13c0-1.96.32-3.32.97-4.1.64-.78,1.78-1.16,3.41-1.16s2.73.39,3.37,1.16c.64.77.95,2.14.95,4.11v1.89h-6.89ZM169.43,11.58h5.2v-.83c0-1.22-.18-2.05-.55-2.48-.37-.43-1.05-.65-2.05-.65s-1.67.22-2.04.65c-.37.44-.55,1.26-.55,2.47v.83Z"/>
  <path class="cls-1" d="M111.64,19.5v-1.2c-.3.52-.69.89-1.18,1.11-.49.22-1.16.34-2,.34-1.1,0-1.92-.28-2.47-.83-.54-.55-.81-1.39-.81-2.53v-1.77c0-1.11.3-1.95.89-2.52.59-.57,1.46-.86,2.61-.86.71,0,1.31.09,1.79.28.48.19.87.47,1.18.86v-2.06c0-1.13-.15-1.86-.45-2.21-.3-.35-.9-.52-1.81-.52-.75,0-1.28.13-1.59.39-.31.26-.47.68-.47,1.28v.62h-1.74v-.6c0-1.14.31-1.97.93-2.49.62-.53,1.6-.79,2.95-.79,1.46,0,2.46.28,3.02.83.56.56.83,1.57.83,3.04v9.61h-1.67ZM109.11,18.2c.94,0,1.61-.21,2-.63.39-.42.58-1.15.58-2.19s-.16-1.67-.49-2.02c-.33-.35-.95-.52-1.88-.52s-1.57.19-1.89.57c-.32.38-.48,1.13-.48,2.27,0,.92.17,1.57.5,1.95.33.39.89.58,1.66.58Z"/>
</svg>