<svg width="416" height="51" viewBox="0 0 416 51" fill="none" xmlns="http://www.w3.org/2000/svg">
<path d="M0.461548 35.0956H9.19336C9.50521 37.9023 10.4408 39.7734 11.6882 40.7089C12.9356 41.9563 15.1185 42.2682 17.9252 42.2682C23.2266 42.2682 25.7214 40.0852 25.7214 36.0312C25.7214 34.1601 25.0977 32.6008 24.1622 31.6653C23.2266 30.7297 21.3555 30.106 19.1726 29.4823L14.4948 28.8586C5.763 27.2994 1.3971 22.9335 1.3971 15.4491C1.3971 11.0832 2.95635 7.34093 5.763 4.84613C8.88151 2.35133 12.6237 0.792114 17.6133 0.792114C22.2911 0.792114 26.0333 2.03951 28.8399 4.53431C31.6466 7.02911 33.2058 10.7713 33.5177 15.1372H24.7859C24.7859 12.6424 23.8503 11.0832 22.6029 10.1476C21.3555 9.21207 19.4844 8.58837 17.3015 8.58837C14.8067 8.58837 13.2474 9.21207 12 10.1476C10.7526 11.0832 10.1289 12.6424 10.1289 14.8254C10.1289 16.3846 10.7526 17.9438 11.6882 18.8794C12.6237 19.8149 14.4948 20.4387 16.6778 21.0624L21.6674 21.9979C30.0873 23.5571 34.1414 27.9231 34.1414 35.7193C34.1414 40.7089 32.5821 44.4511 29.4636 46.9459C26.3451 49.4407 22.2911 50.6882 16.9896 50.6882C11.6882 50.6882 7.6341 49.4407 4.82745 46.9459C2.33265 43.8274 0.773398 40.0853 0.461548 35.0956ZM76.8649 9.52388V50.0644H67.5094V9.52388H55.0354V1.41581H89.027V9.52388H76.8649ZM115.534 40.3971L112.728 49.7526H103.06L120.212 1.41581H127.696L144.848 49.7526H135.181L132.374 40.3971H115.534ZM123.954 14.2016L118.029 32.9127H129.879L123.954 14.2016ZM176.033 30.4179V50.0644H166.99V1.72763H185.389C190.067 1.72763 193.809 2.97507 196.615 5.46987C199.422 7.96467 200.981 11.7069 200.981 16.0728C200.981 19.1913 200.358 21.9979 198.798 24.1809C197.239 26.3638 195.056 27.9231 192.561 29.1705L203.164 50.3763H192.561L183.518 30.7297H176.033V30.4179ZM184.765 22.6216C186.948 22.6216 188.507 21.9979 189.755 20.7505C191.002 19.5031 191.626 17.9438 191.626 15.7609C191.626 13.8898 191.002 12.3305 189.755 11.0831C188.507 9.83574 186.948 9.21206 184.765 9.21206H176.033V22.3098H184.765V22.6216ZM234.973 1.41581V41.9563H256.179V50.0644H225.929V1.72763H234.973V1.41581ZM289.235 1.41581V50.0644H280.191V1.72763H289.235V1.41581ZM351.917 50.0644H342.873L325.098 19.815V50.0644H315.43V1.72763H324.474L342.249 31.9771V1.72763H351.293V50.0644H351.917ZM386.844 36.343V49.7526H377.8V1.41581H386.844V23.869L403.684 1.41581H414.599L399.006 20.7505L415.846 49.7526H405.243L393.393 28.2349L386.844 36.343Z" fill="white"/>
</svg>
